<svg width="80" height="80" viewBox="0 0 80 80" fill="none" xmlns="http://www.w3.org/2000/svg">
<path d="M39.7714 12.3429C54.9378 12.3429 67.2 24.605 67.2 39.7714C67.2 54.9378 54.9378 67.2 39.7714 67.2C24.605 67.2 12.3429 54.9378 12.3429 39.7714C12.3429 24.605 24.605 12.3429 39.7714 12.3429ZM39.7714 63.9731C53.163 63.9731 63.9731 53.163 63.9731 39.7714C63.9731 26.3798 53.163 15.5697 39.7714 15.5697C26.3798 15.5697 15.5697 26.3798 15.5697 39.7714C15.5697 53.163 26.3798 63.9731 39.7714 63.9731Z" fill="#88996D"/>
<path d="M25.8293 36.7543L39.52 50.4274L53.2107 36.7543L55.52 39.0606L39.52 55.04L23.52 39.0606L25.8293 36.7543Z" fill="#88996D"/>
<path d="M41.6 52.8H38.1714V23.0857H41.6L41.6 52.8Z" fill="#88996D"/>
</svg>
