<svg width="49" height="47" viewBox="0 0 49 47" fill="none" xmlns="http://www.w3.org/2000/svg">
<path d="M25.8599 20.0628C26.6605 20.4105 27.6393 21.1148 28.2265 22.6074L28.2271 22.61C28.8834 24.2629 29.2696 25.4721 29.9575 26.4923C30.6828 27.5681 31.7182 28.4254 33.5746 29.6179C35.1817 30.6497 35.6427 31.7357 35.634 32.734C35.6245 33.8074 35.0706 34.9688 34.2514 36.0879C33.5565 37.0372 32.5611 37.5705 31.6067 37.8576C30.6321 38.1507 29.7961 38.1575 29.5673 38.1311C29.5973 38.1346 29.5665 38.1341 29.436 38.0872C29.3193 38.0452 29.1715 37.9841 28.9825 37.9027C28.6219 37.7473 28.1186 37.5193 27.5767 37.3012C26.4888 36.8634 25.056 36.3859 23.5341 36.364C22.0036 36.3386 20.5145 36.7762 19.3784 37.1842C18.8128 37.3873 18.2859 37.6017 17.9101 37.7467C17.7131 37.8227 17.5601 37.8796 17.4404 37.9177C17.3057 37.9607 17.2788 37.9592 17.3146 37.9563L17.3101 37.956C17.0711 37.976 16.2325 37.9448 15.2901 37.6252C14.3701 37.3132 13.44 36.7573 12.8517 35.7996L12.8567 35.7957C12.162 34.6554 11.7344 33.4786 11.8399 32.4058C11.9381 31.4084 12.5131 30.3371 14.2255 29.3533C16.2106 28.2128 17.3393 27.3876 18.1781 26.3331C18.9738 25.3328 19.4846 24.1343 20.3128 22.4968C21.0573 21.0245 22.112 20.3481 22.9524 20.0228C23.3825 19.8564 23.7674 19.7789 24.0392 19.7427C24.1741 19.7248 24.279 19.717 24.345 19.7141C24.378 19.7126 24.4014 19.7124 24.4132 19.7123L24.4199 19.7127L24.4281 19.7128L24.4409 19.7112C24.4408 19.7125 24.4413 19.7125 24.4412 19.7125L24.4404 19.712L24.439 19.7123L24.4367 19.7122C24.4381 19.7122 24.4398 19.7129 24.4421 19.7129C24.4536 19.7133 24.4768 19.7138 24.5092 19.7162C24.5742 19.7209 24.6776 19.7312 24.8098 19.7528C25.0758 19.7963 25.4501 19.8848 25.8599 20.0628Z" stroke="#F7FDED" stroke-width="2"/>
<path d="M39.0089 18.5103C39.5621 18.7652 40.0003 19.3736 40.1045 20.3632C40.2077 21.3434 39.9567 22.5802 39.2691 23.8104C38.5836 25.0367 37.7536 25.7423 36.9848 26.0676C36.2312 26.3863 35.4683 26.3725 34.7792 26.0545C34.0913 25.7369 33.6305 25.1853 33.4703 24.4436C33.325 23.7706 33.4192 22.885 33.9237 21.8345L34.1439 21.4409C34.8321 20.2097 35.7801 19.2971 36.7094 18.7955C37.6461 18.29 38.4463 18.2517 39.0084 18.5111L39.0089 18.5103Z" stroke="#F7FDED" stroke-width="2"/>
<path d="M31.6628 8.07634C32.4073 8.28146 33.0538 8.93029 33.3837 10.0418C33.711 11.1451 33.6799 12.5952 33.1495 14.1115C32.62 15.6253 31.8138 16.5889 30.9828 17.1098C30.166 17.6216 29.2626 17.7491 28.3816 17.5066C27.4981 17.2633 26.831 16.7046 26.4814 15.874C26.1261 15.0294 26.0737 13.8333 26.6026 12.321L26.76 11.8707C27.3014 10.5601 28.1171 9.50853 28.994 8.83542C29.975 8.08238 30.9201 7.87187 31.6628 8.07634Z" stroke="#F7FDED" stroke-width="2"/>
<path d="M12.2567 17.8734C13.1391 18.4044 13.9966 19.3498 14.5542 20.6063C15.1104 21.8599 15.1386 22.8932 14.8927 23.6468C14.6518 24.3848 14.1293 24.9249 13.3994 25.2254L13.3932 25.2276C12.672 25.5288 11.9075 25.522 11.1845 25.1805C10.4473 24.8322 9.6889 24.101 9.1294 22.8553L9.13025 22.8558C8.5722 21.5983 8.45153 20.3475 8.66079 19.3643C8.87173 18.3733 9.37904 17.7712 9.97409 17.5262L9.97937 17.5236C10.5672 17.2781 11.3667 17.3379 12.2567 17.8734Z" stroke="#F7FDED" stroke-width="2"/>
<path d="M17.9351 7.6183C18.7007 7.43401 19.6273 7.67062 20.5303 8.45184C21.4263 9.22696 22.1969 10.4669 22.5596 12.0018L22.6511 12.3891L22.6529 12.3901C22.9054 13.7378 22.7196 14.8084 22.3093 15.5767C21.8689 16.4014 21.1402 16.9434 20.2271 17.1595C19.311 17.3763 18.4167 17.2216 17.6519 16.6852C16.9223 16.1735 16.2573 15.2726 15.8704 13.8994L15.7966 13.6183C15.4308 12.0885 15.5556 10.6364 16.0016 9.54016C16.4514 8.43477 17.1685 7.80289 17.9351 7.6183Z" stroke="#F7FDED" stroke-width="2"/>
</svg>
